<svg xmlns="http://www.w3.org/2000/svg" xmlns:xlink="http://www.w3.org/1999/xlink" width="1440" height="1024" viewBox="0 0 1440 1024" role="img" aria-labelledby="title desc">
  <title id="title">Main Page Default Visual Draft v2 Palette C Dragon v3 Figma Friendly</title>
  <desc id="desc">A Figma-friendly Morandi homepage visual draft using the original generated parchment dragon background and a lowered title stack.</desc>
  <defs>
    <filter id="paperNoise" x="-20%" y="-20%" width="140%" height="140%">
      <feTurbulence type="fractalNoise" baseFrequency="0.64" numOctaves="3" seed="26" result="noise"/>
      <feColorMatrix in="noise" type="matrix" values="0 0 0 0 0.40 0 0 0 0 0.42 0 0 0 0 0.43 0 0 0 .045 0"/>
      <feBlend mode="multiply" in2="SourceGraphic"/>
    </filter>
    <filter id="dockShadow" x="-20%" y="-60%" width="140%" height="220%">
      <feDropShadow dx="0" dy="16" stdDeviation="18" flood-color="#6F4F45" flood-opacity=".14"/>
    </filter>
    <filter id="softButtonShadow" x="-30%" y="-80%" width="160%" height="260%">
      <feDropShadow dx="0" dy="8" stdDeviation="9" flood-color="#8A6257" flood-opacity=".10"/>
    </filter>
    <filter id="buttonGlassShadow" x="-30%" y="-80%" width="160%" height="260%">
      <feDropShadow dx="0" dy="10" stdDeviation="9" flood-color="#7D5A50" flood-opacity=".15"/>
    </filter>
    <pattern id="quietScript" width="220" height="190" patternUnits="userSpaceOnUse">
      <path d="M28 48 C76 30 122 56 182 26" fill="none" stroke="#B48A78" stroke-width="1" opacity=".13"/>
      <path d="M18 128 C72 108 118 136 196 98" fill="none" stroke="#B48A78" stroke-width="1" opacity=".10"/>
      <path d="M116 18 L126 170" fill="none" stroke="#E9DDBF" stroke-width="1" opacity=".16"/>
    </pattern>
  </defs>

  <rect width="1440" height="1024" fill="#ECE7DC"/>
  <rect width="1440" height="1024" fill="url(#quietScript)" opacity=".54"/>
  <rect width="1440" height="1024" fill="#ECE7DC" opacity=".36" filter="url(#paperNoise)"/>

  <path d="M0 0 H1440 V178 C1168 142 986 196 746 150 C510 104 282 120 0 194 Z" fill="#E9DDBF" opacity=".76"/>
  <path d="M0 0 H352 C308 168 318 292 374 420 C438 568 410 742 306 1024 H0 Z" fill="#E9DDBF" opacity=".46"/>
  <path d="M1440 1024 H0 V802 C237 862 452 858 686 812 C937 763 1170 800 1440 742 Z" fill="#B48A78" opacity=".27"/>
  <path d="M1024 -10 C1003 180 1039 307 1158 390 C1282 477 1337 604 1274 754" fill="none" stroke="#B48A78" stroke-width="1.3" opacity=".28"/>
  <path d="M219 134 C358 216 362 340 292 458 C211 594 279 744 458 809" fill="none" stroke="#B48A78" stroke-width="1.3" opacity=".30"/>
  <path d="M360 766 C520 712 596 624 699 678 C806 734 884 688 1010 580" fill="none" stroke="#B48A78" stroke-width="1.1" opacity=".22"/>

  <g id="story-workbench-background-v5">
    <image href="assets/main-page-story-workbench-background-v5.png" xlink:href="assets/main-page-story-workbench-background-v5.png" x="0" y="0" width="1440" height="1024" preserveAspectRatio="xMidYMid slice" opacity="1"/>
  </g>

  <g transform="translate(56 44)">
    <rect x="0" y="0" width="44" height="44" rx="8" fill="#B48A78"/>
    <path d="M13 28 C18 14 28 14 32 27" fill="none" stroke="#EEE8DE" stroke-width="2" stroke-linecap="round"/>
    <path d="M14 29 C21 24 27 24 32 29" fill="none" stroke="#EEE8DE" stroke-width="2" stroke-linecap="round"/>
    <text x="60" y="19" font-family="'Inter', 'Noto Sans SC', sans-serif" font-size="17" fill="#33312D" letter-spacing="0">Multiple Agent</text>
    <text x="60" y="39" font-family="'Inter', 'Noto Sans SC', sans-serif" font-size="13" fill="#5F5A53" letter-spacing="0">For Stories</text>
  </g>

  <g transform="translate(1184 46)" font-family="'Inter', 'Noto Sans SC', sans-serif" font-size="14" fill="#4E4943">
    <text x="0" y="27">新手引导</text>
    <rect x="94" y="0" width="78" height="42" rx="8" fill="#ECE7DC" stroke="#B48A78" stroke-opacity=".52"/>
    <text x="133" y="26" text-anchor="middle" fill="#4E4943">设置</text>
  </g>

  <g transform="translate(0 96)" font-family="'Inter', 'Noto Sans SC', sans-serif">
    <text x="720" y="322" text-anchor="middle" font-size="16" fill="#6B625A" letter-spacing="0">故事创作工作台</text>
    <text x="720" y="392" text-anchor="middle" font-family="'Inter', 'Noto Sans SC', sans-serif" font-size="58" font-weight="700" fill="#2F2D2A" letter-spacing="0">Multiple Agent For Stories</text>
    <text x="720" y="445" text-anchor="middle" font-size="22" fill="#5D5650" letter-spacing="0">让世界、角色与章节在同一张长卷中苏醒</text>
  </g>

  <g transform="translate(602 610)">
    <rect x="0" y="0" width="236" height="60" rx="8" fill="#B48A78"/>
    <text x="118" y="38" text-anchor="middle" font-family="'Inter', 'Noto Sans SC', sans-serif" font-size="20" fill="#2F2D2A" letter-spacing="0">开始创作</text>
  </g>

  <g transform="translate(376 716)" font-family="'Inter', 'Noto Sans SC', sans-serif">
    <g transform="translate(0 0)" filter="url(#buttonGlassShadow)">
      <rect x="0" y="0" width="154" height="54" rx="9" fill="#ECE7DC" opacity=".88" stroke="#FFFFFF" stroke-opacity=".58"/>
      <rect x="1" y="1" width="152" height="52" rx="8" fill="#E9DDBF" opacity=".24" stroke="#B48A78" stroke-opacity=".14"/>
      <g transform="translate(22 17)" stroke="#6D5148" stroke-width="1.7" fill="none" stroke-linecap="round" stroke-linejoin="round">
        <path d="M10 2.5 2.5 6.4 10 10.3 17.5 6.4 10 2.5Z"/>
        <path d="M2.5 10.2 10 14.1 17.5 10.2"/>
        <path d="M2.5 14 10 17.9 17.5 14"/>
      </g>
      <text x="58" y="34" font-size="15" font-weight="600" fill="#373B3A">作品集</text>
    </g>
    <g transform="translate(178 0)" filter="url(#buttonGlassShadow)">
      <rect x="0" y="0" width="154" height="54" rx="9" fill="#ECE7DC" opacity=".88" stroke="#FFFFFF" stroke-opacity=".58"/>
      <rect x="1" y="1" width="152" height="52" rx="8" fill="#B48A78" opacity=".14" stroke="#B48A78" stroke-opacity=".16"/>
      <g transform="translate(22 17)" stroke="#6D5148" stroke-width="1.8" fill="none" stroke-linecap="round" stroke-linejoin="round">
        <path d="M10 13.5V3.5"/>
        <path d="M6.2 7.3 10 3.5l3.8 3.8"/>
        <path d="M4 13.8v2.8A2.4 2.4 0 0 0 6.4 19h7.2A2.4 2.4 0 0 0 16 16.6v-2.8"/>
      </g>
      <text x="58" y="34" font-size="15" font-weight="600" fill="#373B3A">导入故事</text>
    </g>
    <g transform="translate(356 0)" filter="url(#buttonGlassShadow)">
      <rect x="0" y="0" width="154" height="54" rx="9" fill="#ECE7DC" opacity=".88" stroke="#FFFFFF" stroke-opacity=".58"/>
      <rect x="1" y="1" width="152" height="52" rx="8" fill="#E9DDBF" opacity=".30" stroke="#B48A78" stroke-opacity=".14"/>
      <g transform="translate(22 16)" stroke="#6D5148" stroke-width="1.7" fill="none" stroke-linecap="round" stroke-linejoin="round">
        <path d="M10 2.8A6 6 0 0 0 6.5 13c.7.5 1 1.1 1 1.8h5c0-.7.3-1.3 1-1.8A6 6 0 0 0 10 2.8Z"/>
        <path d="M7.8 18h4.4"/>
        <path d="M8.2 15.2h3.6"/>
      </g>
      <text x="58" y="34" font-size="15" font-weight="600" fill="#373B3A">灵感库</text>
    </g>
    <g transform="translate(534 0)" filter="url(#buttonGlassShadow)">
      <rect x="0" y="0" width="154" height="54" rx="9" fill="#ECE7DC" opacity=".88" stroke="#FFFFFF" stroke-opacity=".58"/>
      <rect x="1" y="1" width="152" height="52" rx="8" fill="#B48A78" opacity=".12" stroke="#B48A78" stroke-opacity=".16"/>
      <g transform="translate(22 15.5)" stroke="#6D5148" stroke-width="1.7" fill="none" stroke-linecap="round" stroke-linejoin="round">
        <path d="M6 2.8h6.2L17 7.6V18a2 2 0 0 1-2 2H6a2 2 0 0 1-2-2V4.8a2 2 0 0 1 2-2Z"/>
        <path d="M12 3v5h5"/>
      </g>
      <text x="58" y="34" font-size="15" font-weight="600" fill="#373B3A">创作资料库</text>
    </g>
  </g>

  <g transform="translate(88 828)" font-family="'Inter', 'Noto Sans SC', sans-serif">
    <text x="0" y="0" font-size="13" fill="#726A63">上次停留</text>
    <text x="0" y="31" font-size="18" fill="#383431">第三章 · 雨夜港口</text>
    <text x="0" y="58" font-size="14" fill="#655E57">继续创作会从最近未完成的位置恢复</text>
  </g>

  <g transform="translate(1114 828)" font-family="'Inter', 'Noto Sans SC', sans-serif">
    <text x="210" y="0" text-anchor="end" font-size="13" fill="#726A63">当前主题</text>
    <text x="210" y="31" text-anchor="end" font-size="18" fill="#383431">Morandi · Dragon Parchment</text>
    <text x="210" y="58" text-anchor="end" font-size="14" fill="#655E57">#ECE7DC · #E9DDBF · #B48A78</text>
  </g>
</svg>
