<svg xmlns="http://www.w3.org/2000/svg" xmlns:xlink="http://www.w3.org/1999/xlink" width="1440" height="1024" viewBox="0 0 1440 1024" role="img" aria-labelledby="title desc">
  <title id="title">Works Page W-I-03 Search Empty State</title>
  <desc id="desc">Works page search interaction draft showing the empty result state after a query has no matching stories, characters, or world entries.</desc>
  <defs>
    <filter id="pageBlur" x="-5%" y="-5%" width="110%" height="110%"><feGaussianBlur stdDeviation="18"/></filter>
    <filter id="cardShadow" x="-20%" y="-40%" width="140%" height="180%"><feDropShadow dx="0" dy="18" stdDeviation="18" flood-color="#4F403A" flood-opacity=".14"/></filter>
    <filter id="softShadow" x="-20%" y="-40%" width="140%" height="180%"><feDropShadow dx="0" dy="14" stdDeviation="16" flood-color="#4F403A" flood-opacity=".12"/></filter>
    <filter id="searchShadow" x="-12%" y="-20%" width="124%" height="150%"><feDropShadow dx="0" dy="22" stdDeviation="24" flood-color="#4F403A" flood-opacity=".18"/></filter>
    <linearGradient id="paperPanel" x1="0" y1="0" x2="0" y2="1"><stop offset="0" stop-color="#F2EDE4" stop-opacity=".96"/><stop offset=".58" stop-color="#E8DFD2" stop-opacity=".93"/><stop offset="1" stop-color="#D8CCBA" stop-opacity=".90"/></linearGradient>
    <linearGradient id="quietPanel" x1="0" y1="0" x2="0" y2="1"><stop offset="0" stop-color="#E6DAC7" stop-opacity=".72"/><stop offset="1" stop-color="#CDBEAA" stop-opacity=".54"/></linearGradient>
    <linearGradient id="searchPanel" x1="0" y1="0" x2="0" y2="1"><stop offset="0" stop-color="#F4EFE6" stop-opacity=".96"/><stop offset=".58" stop-color="#E8DFD2" stop-opacity=".90"/><stop offset="1" stop-color="#D8CCBA" stop-opacity=".86"/></linearGradient>
    <linearGradient id="coverWarm" x1="0" y1="0" x2="1" y2="1"><stop offset="0" stop-color="#B48A78" stop-opacity=".58"/><stop offset=".58" stop-color="#E9DDBF" stop-opacity=".46"/><stop offset="1" stop-color="#80685D" stop-opacity=".42"/></linearGradient>
    <linearGradient id="coverCool" x1="0" y1="0" x2="1" y2="1"><stop offset="0" stop-color="#7D8B86" stop-opacity=".54"/><stop offset=".58" stop-color="#D8CCBA" stop-opacity=".42"/><stop offset="1" stop-color="#5B625F" stop-opacity=".38"/></linearGradient>
    <linearGradient id="coverGold" x1="0" y1="0" x2="1" y2="1"><stop offset="0" stop-color="#B9A064" stop-opacity=".48"/><stop offset=".58" stop-color="#E8DFD2" stop-opacity=".46"/><stop offset="1" stop-color="#8E735E" stop-opacity=".38"/></linearGradient>
    <linearGradient id="coverMuted" x1="0" y1="0" x2="1" y2="1"><stop offset="0" stop-color="#8E8178" stop-opacity=".54"/><stop offset=".58" stop-color="#D8CCBA" stop-opacity=".40"/><stop offset="1" stop-color="#6F5E56" stop-opacity=".38"/></linearGradient>
    <clipPath id="coverA"><rect x="0" y="0" width="310" height="86" rx="8"/></clipPath>
    <clipPath id="coverB"><rect x="0" y="0" width="274" height="146" rx="8"/></clipPath>
  </defs>
  <g id="background">
    <image href="assets/homepage-final-v1.png" xlink:href="assets/homepage-final-v1.png" x="-90" y="-70" width="1620" height="1160" preserveAspectRatio="xMidYMid slice" filter="url(#pageBlur)" opacity=".78"/>
    <rect width="1440" height="1024" fill="#E6DAC7" opacity=".72"/>
    <rect width="1440" height="1024" fill="#2F2D2A" opacity=".07"/>
    <ellipse cx="760" cy="540" rx="580" ry="360" fill="#F2EDE4" opacity=".26" filter="url(#pageBlur)"/>
  </g>
  <g id="page" font-family="'Inter', 'Noto Sans SC', 'Microsoft YaHei', sans-serif" letter-spacing="0">
    <g id="topbar" opacity=".76">
      <text x="88" y="142" font-size="44" font-weight="700" fill="#2F2D2A">作品集</text>
      <text x="90" y="171" font-size="15" fill="#665B52">十二卷故事，四段仍在生长</text>
      <rect x="542" y="58" width="326" height="46" rx="9" fill="#F2EDE4" opacity=".56" stroke="#FFF8EE" stroke-opacity=".40"/>
      <text x="570" y="86" font-size="14" fill="#81756B">搜索故事、角色、世界</text>
      <rect x="884" y="58" width="150" height="46" rx="9" fill="#E8DFD2" opacity=".56" stroke="#FFF8EE" stroke-opacity=".36"/>
      <text x="918" y="86" font-size="14" font-weight="600" fill="#4A433D">最近更新</text>
      <path d="M1008 77 l6 6 l6 -6" fill="none" stroke="#74675E" stroke-width="1.6" stroke-linecap="round" stroke-linejoin="round"/>
      <rect x="1050" y="58" width="124" height="46" rx="9" fill="#E8DFD2" opacity=".56" stroke="#FFF8EE" stroke-opacity=".36"/>
      <text x="1112" y="86" text-anchor="middle" font-size="14" font-weight="600" fill="#4A433D">网格</text>
      <rect x="1190" y="58" width="160" height="46" rx="9" fill="#B48A78" opacity=".58" stroke="#F6EEE1" stroke-opacity=".36"/>
      <text x="1270" y="86" text-anchor="middle" font-size="15" font-weight="700" fill="#2F2D2A">新故事</text>
    </g>
    <g id="bottom-back" opacity=".70"><rect x="88" y="880" width="102" height="42" rx="8" fill="#E8DFD2" opacity=".62" stroke="#FFF8EE" stroke-opacity=".44"/><text x="139" y="907" text-anchor="middle" font-size="15" font-weight="600" fill="#3A352F">返回</text></g>
    <g id="filter-rail" transform="translate(88 218)" opacity=".64">
      <text x="0" y="0" font-size="13" font-weight="700" fill="#7B6D63">状态</text>
      <rect x="0" y="20" width="206" height="44" rx="8" fill="#F2EDE4" opacity=".64" stroke="#FFF8EE" stroke-opacity=".36"/>
    <text x="18" y="48" font-size="15" font-weight="700" fill="#302B27">全部故事</text>
    <text x="176" y="48" text-anchor="end" font-size="13" fill="#7B6D63">12</text>

    <text x="18" y="96" font-size="15"  fill="#4D453F">进行中</text>
    <text x="176" y="96" text-anchor="end" font-size="13" fill="#7B6D63">5</text>

    <text x="18" y="140" font-size="15"  fill="#4D453F">已完成</text>
    <text x="176" y="140" text-anchor="end" font-size="13" fill="#7B6D63">3</text>

    <text x="18" y="184" font-size="15"  fill="#4D453F">暂停</text>
    <text x="176" y="184" text-anchor="end" font-size="13" fill="#7B6D63">2</text>

    <text x="18" y="228" font-size="15"  fill="#4D453F">归档</text>
    <text x="176" y="228" text-anchor="end" font-size="13" fill="#7B6D63">2</text>
      <line x1="0" y1="276" x2="206" y2="276" stroke="#8A7C70" stroke-opacity=".24"/>
      <text x="0" y="320" font-size="13" font-weight="700" fill="#7B6D63">题材</text>
      <text x="0" y="358" font-size="14" fill="#4D453F">奇幻史诗</text>
<text x="0" y="394" font-size="14" fill="#4D453F">城市悬疑</text>
<text x="0" y="430" font-size="14" fill="#4D453F">温柔日常</text>
<text x="0" y="466" font-size="14" fill="#4D453F">科幻远征</text>
    </g>
    <g id="story-grid">
      <g transform="translate(330 218)" filter="url(#cardShadow)" opacity=".92">
    <rect width="310" height="220" rx="10" fill="url(#paperPanel)" stroke="#FFF8EE" stroke-opacity=".50"/>
    <rect x="-3" y="-3" width="316" height="226" rx="12" fill="none" stroke="#9E7E74" stroke-width="2" opacity=".62"/>
    <g clip-path="url(#coverA)">
      <image href="assets/main-page-story-workbench-background-v5.png" xlink:href="assets/main-page-story-workbench-background-v5.png" x="-42" y="-48" width="430" height="248" preserveAspectRatio="xMidYMid slice" opacity=".34"/>
      <rect width="310" height="86" fill="url(#coverWarm)"/>
    </g>
    <text x="20" y="118" font-size="20" font-weight="800" fill="#2F2D2A">雨夜港口</text>
    <text x="20" y="145" font-size="13" fill="#6A5E55">第三章 · 码头灯塔前</text>
    <rect x="218" y="104" width="68" height="26" rx="13" fill="#D8CCBA" opacity=".70" stroke="#FFF8EE" stroke-opacity=".34"/>
    <text x="252" y="122" text-anchor="middle" font-size="12" font-weight="700" fill="#4F403A">进行中</text>
    <rect x="20" y="164" width="196" height="6" rx="3" fill="#C8BAA8" opacity=".54"/>
    <rect x="20" y="164" width="134" height="6" rx="3" fill="#9E7E74" opacity=".70"/>
    <text x="20" y="192" font-size="12" fill="#7A6D64">世界画布 86% · 角色 12 · Framework M4</text>
  </g>
      <g transform="translate(664 218)" filter="url(#softShadow)" opacity=".70">
    <rect width="310" height="220" rx="10" fill="url(#quietPanel)" stroke="#FFF8EE" stroke-opacity=".36"/>
    
    <g clip-path="url(#coverA)">
      <image href="assets/main-page-story-workbench-background-v5.png" xlink:href="assets/main-page-story-workbench-background-v5.png" x="-120" y="-58" width="430" height="248" preserveAspectRatio="xMidYMid slice" opacity=".34"/>
      <rect width="310" height="86" fill="url(#coverCool)"/>
    </g>
    <text x="20" y="118" font-size="20" font-weight="800" fill="#2F2D2A">白塔余晖</text>
    <text x="20" y="145" font-size="13" fill="#6A5E55">第一部 · 完结校订</text>
    <rect x="218" y="104" width="68" height="26" rx="13" fill="#D9E0D8" opacity=".70" stroke="#FFF8EE" stroke-opacity=".34"/>
    <text x="252" y="122" text-anchor="middle" font-size="12" font-weight="700" fill="#4C5C55">已完成</text>
    <rect x="20" y="164" width="196" height="6" rx="3" fill="#C8BAA8" opacity=".54"/>
    <rect x="20" y="164" width="196" height="6" rx="3" fill="#7D8B86" opacity=".70"/>
    <text x="20" y="192" font-size="12" fill="#7A6D64">42 场景 · 8 角色 · 可导出</text>
  </g>
      <g transform="translate(330 470)" filter="url(#softShadow)" opacity=".70">
    <rect width="310" height="220" rx="10" fill="url(#quietPanel)" stroke="#FFF8EE" stroke-opacity=".36"/>
    
    <g clip-path="url(#coverA)">
      <image href="assets/main-page-story-workbench-background-v5.png" xlink:href="assets/main-page-story-workbench-background-v5.png" x="-70" y="-70" width="430" height="248" preserveAspectRatio="xMidYMid slice" opacity=".34"/>
      <rect width="310" height="86" fill="url(#coverGold)"/>
    </g>
    <text x="20" y="118" font-size="20" font-weight="800" fill="#2F2D2A">金色餐厅</text>
    <text x="20" y="145" font-size="13" fill="#6A5E55">第二章 · 王城晚宴</text>
    <rect x="230" y="104" width="56" height="26" rx="13" fill="#E8DFD2" opacity=".70" stroke="#FFF8EE" stroke-opacity=".34"/>
    <text x="258" y="122" text-anchor="middle" font-size="12" font-weight="700" fill="#6A5A43">暂停</text>
    <rect x="20" y="164" width="196" height="6" rx="3" fill="#C8BAA8" opacity=".54"/>
    <rect x="20" y="164" width="82" height="6" rx="3" fill="#B9A064" opacity=".70"/>
    <text x="20" y="192" font-size="12" fill="#7A6D64">角色关系待确认 · 12 处冲突</text>
  </g>
      <g transform="translate(664 470)" filter="url(#softShadow)" opacity=".70">
    <rect width="310" height="220" rx="10" fill="url(#quietPanel)" stroke="#FFF8EE" stroke-opacity=".36"/>
    
    <g clip-path="url(#coverA)">
      <image href="assets/main-page-story-workbench-background-v5.png" xlink:href="assets/main-page-story-workbench-background-v5.png" x="-150" y="-76" width="430" height="248" preserveAspectRatio="xMidYMid slice" opacity=".34"/>
      <rect width="310" height="86" fill="url(#coverMuted)"/>
    </g>
    <text x="20" y="118" font-size="20" font-weight="800" fill="#2F2D2A">雾中列车</text>
    <text x="20" y="145" font-size="13" fill="#6A5E55">归档 · 城市悬疑</text>
    <rect x="230" y="104" width="56" height="26" rx="13" fill="#D8CCBA" opacity=".70" stroke="#FFF8EE" stroke-opacity=".34"/>
    <text x="258" y="122" text-anchor="middle" font-size="12" font-weight="700" fill="#5E554E">归档</text>
    <rect x="20" y="164" width="196" height="6" rx="3" fill="#C8BAA8" opacity=".54"/>
    <rect x="20" y="164" width="164" height="6" rx="3" fill="#8E8178" opacity=".70"/>
    <text x="20" y="192" font-size="12" fill="#7A6D64">31 场景 · 4 条未解线索</text>
  </g>
    </g>
    <g id="selected-preview" transform="translate(1030 218)" opacity=".78">
    <rect x="0" y="0" width="322" height="654" rx="12" fill="#E8DFD2" opacity=".52" stroke="#FFF8EE" stroke-opacity=".38"/>
    <text x="24" y="38" font-size="13" font-weight="700" fill="#7B6D63">当前选中</text>
    <g transform="translate(24 64)">
      <rect width="274" height="146" rx="10" fill="url(#paperPanel)" stroke="#FFF8EE" stroke-opacity=".48"/>
      <g clip-path="url(#coverB)">
        <image href="assets/main-page-story-workbench-background-v5.png" xlink:href="assets/main-page-story-workbench-background-v5.png" x="-106" y="-98" width="454" height="318" preserveAspectRatio="xMidYMid slice" opacity=".40"/>
        <rect width="274" height="146" fill="url(#coverWarm)"/>
      </g>
    </g>
    <text x="24" y="252" font-size="28" font-weight="800" fill="#2F2D2A">雨夜港口</text>
    <text x="24" y="282" font-size="14" fill="#6A5E55">奇幻史诗 · 第三章 · 进行中</text>
    <g transform="translate(24 322)">
      <text x="0" y="0" font-size="13" font-weight="700" fill="#7B6D63">进度</text>
      <rect x="0" y="20" width="274" height="7" rx="3.5" fill="#C8BAA8" opacity=".54"/>
      <rect x="0" y="20" width="188" height="7" rx="3.5" fill="#9E7E74" opacity=".74"/>
      <text x="0" y="56" font-size="13" fill="#5F524B">世界画布 86%</text>
      <text x="138" y="56" font-size="13" fill="#5F524B">Framework M4</text>
      <text x="0" y="88" font-size="13" fill="#5F524B">12 角色</text>
      <text x="138" y="88" font-size="13" fill="#5F524B">28 场景</text>
    </g>
    <g transform="translate(24 448)">
      <text x="0" y="0" font-size="13" font-weight="700" fill="#7B6D63">最近节点</text>
      <line x1="4" y1="28" x2="4" y2="118" stroke="#8A7C70" stroke-opacity=".28"/>
      <circle cx="4" cy="30" r="4" fill="#9E7E74" opacity=".76"/>
      <text x="24" y="35" font-size="13" fill="#3F3832">雨夜港口 · 场景草稿完成</text>
      <circle cx="4" cy="74" r="4" fill="#8E8178" opacity=".56"/>
      <text x="24" y="79" font-size="13" fill="#5F524B">新增角色关系约束</text>
      <circle cx="4" cy="118" r="4" fill="#8E8178" opacity=".42"/>
      <text x="24" y="123" font-size="13" fill="#5F524B">Framework 进入 M4</text>
    </g>
    <g transform="translate(24 600)">
      <rect x="0" y="0" width="132" height="44" rx="9" fill="#F2EDE4" opacity=".76" stroke="#FFF8EE" stroke-opacity=".48"/>
      <text x="66" y="28" text-anchor="middle" font-size="14" font-weight="700" fill="#302B27">继续</text>
      <rect x="142" y="0" width="132" height="44" rx="9" fill="#D8CCBA" opacity=".54" stroke="#FFF8EE" stroke-opacity=".34"/>
      <text x="208" y="28" text-anchor="middle" font-size="14" font-weight="700" fill="#4A433D">详情</text>
    </g>
  </g>
    <g id="search-empty-state">
    <rect x="0" y="0" width="1440" height="1024" fill="#2F2D2A" opacity=".10"/>
    <rect x="0" y="0" width="1440" height="1024" fill="#F2EDE4" opacity=".08"/>
    <g transform="translate(476 48)" filter="url(#searchShadow)">
      <rect width="488" height="54" rx="11" fill="#F7F2E9" opacity=".96" stroke="#B48A78" stroke-opacity=".62"/>
      <circle cx="29" cy="27" r="8" fill="none" stroke="#5F524B" stroke-width="1.7" opacity=".74"/>
      <path d="M35 33 L43 41" fill="none" stroke="#5F524B" stroke-width="1.7" stroke-linecap="round" opacity=".74"/>
      <text x="58" y="34" font-size="16" font-weight="700" fill="#2F2D2A">月蚀剧场</text>
      <rect x="134" y="16" width="1.5" height="24" rx=".75" fill="#B48A78" opacity=".76"/>
      <text x="452" y="34" text-anchor="end" font-size="13" fill="#7A6D64">清除</text>
    </g>
    <g transform="translate(395 126)" filter="url(#searchShadow)">
      <rect width="650" height="340" rx="14" fill="url(#searchPanel)" stroke="#FFF8EE" stroke-opacity=".54"/>
      <g transform="translate(96 64)">
        <rect x="142" y="0" width="170" height="118" rx="18" fill="#F2EDE4" opacity=".50" stroke="#FFF8EE" stroke-opacity=".42"/>
        <circle cx="200" cy="58" r="24" fill="none" stroke="#8E8178" stroke-width="2" opacity=".58"/>
        <path d="M219 77 L242 100" fill="none" stroke="#8E8178" stroke-width="2.2" stroke-linecap="round" opacity=".58"/>
        <path d="M191 55 C198 46 210 46 216 55" fill="none" stroke="#B48A78" stroke-width="1.8" stroke-linecap="round" opacity=".56"/>
        <text x="227" y="166" text-anchor="middle" font-size="22" font-weight="800" fill="#2F2D2A">没有找到相关内容</text>
        <text x="227" y="198" text-anchor="middle" font-size="14" fill="#6A5E55">当前作品集里没有匹配“月蚀剧场”的故事、角色或世界条目</text>
        </g>
      </g>
  </g>
  </g>
</svg>